<?xml version="1.0" encoding="UTF-8"?>
<svg version="1.1" xmlns="http://www.w3.org/2000/svg" width="1080" height="1080">
<path d="M0 0 C356.4 0 712.8 0 1080 0 C1080 356.4 1080 712.8 1080 1080 C723.6 1080 367.2 1080 0 1080 C0 723.6 0 367.2 0 0 Z " fill="#071012" transform="translate(0,0)"/>
<path d="M0 0 C356.4 0 712.8 0 1080 0 C1080 356.4 1080 712.8 1080 1080 C723.6 1080 367.2 1080 0 1080 C0 723.6 0 367.2 0 0 Z M128 128 C128 399.92 128 671.84 128 952 C399.92 952 671.84 952 952 952 C952 680.08 952 408.16 952 128 C680.08 128 408.16 128 128 128 Z " fill="#FFCC00" transform="translate(0,0)"/>
<path d="M0 0 C356.4 0 712.8 0 1080 0 C1080 356.4 1080 712.8 1080 1080 C723.6 1080 367.2 1080 0 1080 C0 723.6 0 367.2 0 0 Z M55 55 C55 375.1 55 695.2 55 1025 C375.1 1025 695.2 1025 1025 1025 C1025 704.9 1025 384.8 1025 55 C704.9 55 384.8 55 55 55 Z " fill="#071013" transform="translate(0,0)"/>
<path d="M0 0 C1.03007675 0.14695312 1.03007675 0.14695312 2.08096313 0.296875 C12.38998028 1.80768593 22.02326229 4.48815836 31.875 7.8125 C32.78233887 8.10842041 33.68967773 8.40434082 34.62451172 8.70922852 C50.62469898 13.99079503 65.45637012 21.56945334 78.875 31.8125 C79.62007813 32.35519531 80.36515625 32.89789063 81.1328125 33.45703125 C105.89353369 52.21143888 124.71261302 79.38051687 133.625 109.1875 C133.86734375 109.97898437 134.1096875 110.77046875 134.359375 111.5859375 C134.875 113.8125 134.875 113.8125 134.875 117.8125 C122.23603191 118.06765046 109.59767869 118.26296029 96.95665741 118.38243389 C91.08638899 118.43978437 85.21788541 118.51753239 79.34863281 118.64233398 C73.68153121 118.76207951 68.01612387 118.82767086 62.34785461 118.85614967 C60.18831201 118.87643643 58.02885969 118.91605604 55.87004089 118.97553062 C38.94108402 119.4232603 38.94108402 119.4232603 33.86547852 115.46621704 C31.81152154 112.66057329 30.36529722 109.94412136 28.875 106.8125 C17.9719021 92.13025152 0.94797537 86.60002013 -16.125 82.8125 C-16.73013428 82.63525391 -17.33526855 82.45800781 -17.95874023 82.27539062 C-23.04676646 81.18817123 -28.445255 81.62767549 -33.625 81.625 C-34.841875 81.61275391 -36.05875 81.60050781 -37.3125 81.58789062 C-62.17544783 81.54804616 -84.39299492 89.26881015 -102.125 106.8125 C-109.25841837 114.30975578 -114.35123621 122.71081368 -119.125 131.8125 C-119.53621094 132.59238281 -119.94742188 133.37226563 -120.37109375 134.17578125 C-134.03635465 162.41023082 -132.29259119 200.73913776 -122.46826172 229.75195312 C-119.3918242 238.43989964 -115.55293961 246.32104616 -110.125 253.8125 C-109.48046875 254.71484375 -108.8359375 255.6171875 -108.171875 256.546875 C-95.45031499 273.22625368 -77.31084889 283.09106416 -57.125 287.8125 C-56.01511719 288.11027344 -54.90523437 288.40804688 -53.76171875 288.71484375 C-28.85861349 294.72593812 0.51900927 291.22097941 22.73803711 278.23413086 C39.74786738 267.63100724 50.18949277 251.93561916 57.875 233.8125 C59.36 230.3475 59.36 230.3475 60.875 226.8125 C23.585 226.8125 -13.705 226.8125 -52.125 226.8125 C-52.125 205.3625 -52.125 183.9125 -52.125 161.8125 C11.895 161.8125 75.915 161.8125 141.875 161.8125 C141.875 251.94107856 141.875 251.94107856 129.625 274.5 C129.15956787 275.36955322 128.69413574 276.23910645 128.21459961 277.13500977 C112.83694501 305.30885753 90.54016702 328.53847726 62.875 344.8125 C61.79629639 345.45421143 61.79629639 345.45421143 60.69580078 346.10888672 C20.182536 369.81917888 -31.26651979 376.62587421 -77.125 366.8125 C-78.02814941 366.62445801 -78.93129883 366.43641602 -79.86181641 366.24267578 C-106.25732405 360.54863887 -130.82288576 349.43210616 -152.125 332.8125 C-152.97835937 332.1628125 -153.83171875 331.513125 -154.7109375 330.84375 C-188.83797955 304.02249701 -211.13044323 264.52138387 -218.125 221.8125 C-218.30232666 220.80517822 -218.47965332 219.79785645 -218.66235352 218.76000977 C-220.3944901 207.72660035 -220.46340433 196.77196357 -220.44067383 185.62475586 C-220.43750905 182.38426174 -220.46107202 179.14467923 -220.48632812 175.90429688 C-220.52240862 164.1339494 -219.84328449 153.27861147 -217.125 141.8125 C-216.75395898 139.99531076 -216.38518171 138.17765658 -216.01953125 136.359375 C-209.43642081 106.40515727 -195.24659489 78.14565865 -174.125 55.8125 C-172.97414139 54.46260154 -171.82808069 53.10859379 -170.6875 51.75 C-158.86701995 38.28703867 -143.76213839 28.1337516 -128.02441406 19.81933594 C-126.25335492 18.88053801 -124.49709943 17.91395904 -122.7421875 16.9453125 C-112.65411088 11.5793143 -102.03967768 8.09930635 -91.125 4.8125 C-90.42117188 4.59964355 -89.71734375 4.38678711 -88.9921875 4.16748047 C-60.33383142 -4.27446058 -29.36470117 -4.2907025 0 0 Z " fill="#FECB00" transform="translate(429.125,353.1875)"/>
<path d="M0 0 C29.37 0 58.74 0 89 0 C89.06627795 33.27458861 89.12161568 66.54911257 89.15319599 99.82374744 C89.1569476 103.76229984 89.16083061 107.7008521 89.16479492 111.6394043 C89.16558185 112.42341808 89.16636878 113.20743186 89.16717956 114.01520363 C89.18019295 126.66896402 89.20382408 139.32268305 89.23145839 151.97641899 C89.25962632 164.98409056 89.27620018 177.99174064 89.28226548 190.99944144 C89.28635846 199.0099955 89.29923111 207.02043258 89.3237494 215.03095058 C89.34165324 221.1989078 89.34333719 227.36677797 89.33932304 233.53475761 C89.34014122 236.0463711 89.34601169 238.55798945 89.35761642 241.06957626 C89.44267937 260.44743806 88.80766453 279.63783003 82 298 C81.57976562 299.19753906 81.15953125 300.39507813 80.7265625 301.62890625 C75.74218379 315.32359265 68.16594373 326.53172337 58 337 C57.17628906 337.91652344 57.17628906 337.91652344 56.3359375 338.8515625 C47.45702355 348.43029233 35.72728372 354.62383431 24 360 C22.92363281 360.5053125 21.84726562 361.010625 20.73828125 361.53125 C16.16790787 363.46662442 11.38624461 364.51420167 6.5625 365.625 C5.65951172 365.8415625 4.75652344 366.058125 3.82617188 366.28125 C-4.21978381 368.16893258 -12.03416189 369.1511249 -20.28515625 369.23828125 C-21.05544159 369.24802979 -21.82572693 369.25777832 -22.61935425 369.26782227 C-39.7327674 369.43981421 -56.31836981 369.33793674 -73 365 C-73.70511719 364.81808105 -74.41023437 364.63616211 -75.13671875 364.44873047 C-102.03272039 357.17198341 -127.33747664 339.25662364 -141.57250977 315.18896484 C-147.56974051 304.67671339 -151.60082942 293.91892309 -154.75 282.25 C-155.06662598 281.07957153 -155.06662598 281.07957153 -155.38964844 279.88549805 C-155.5859082 279.12406494 -155.78216797 278.36263184 -155.984375 277.578125 C-156.15678711 276.91200195 -156.32919922 276.24587891 -156.50683594 275.55957031 C-158.57144867 264.84402584 -158 255.12641029 -158 244 C-128.96 244 -99.92 244 -70 244 C-69.34 249.61 -68.68 255.22 -68 261 C-64.58839662 272.01460519 -60.30940462 280.19143897 -50.09765625 286.03515625 C-39.82144071 290.76183267 -28.4111242 289.77296871 -18 286 C-10.17359644 281.73809707 -5.57480717 275.33071972 -2.578125 267.08984375 C-0.8633408 260.89113058 -0.84808245 254.82506943 -0.84178162 248.4458313 C-0.83684364 247.38306469 -0.83190566 246.32029808 -0.82681805 245.22532642 C-0.8114617 241.66470485 -0.80308743 238.10410128 -0.79467773 234.54345703 C-0.78509775 231.99087872 -0.7750876 229.43830199 -0.76467896 226.88572693 C-0.74323923 221.39044856 -0.72479244 215.89517312 -0.70907402 210.39987564 C-0.68634276 202.4546411 -0.65820448 194.50943291 -0.62875474 186.56422077 C-0.58111871 173.67303383 -0.53784374 160.7818361 -0.49731445 147.890625 C-0.45793921 135.36945761 -0.41650814 122.84829979 -0.37231445 110.32714844 C-0.36822804 109.16906517 -0.36822804 109.16906517 -0.36405908 107.98758627 C-0.35037927 104.11433551 -0.33665906 100.24108488 -0.32291877 96.36783433 C-0.20901667 64.24524171 -0.10299748 32.1226299 0 0 Z " fill="#FECB00" transform="translate(760,355)"/>
</svg>
